<svg aria-hidden="true" style="position: absolute; width: 0; height: 0; overflow: hidden;" version="1.1" xmlns="http://www.w3.org/2000/svg" xmlns:xlink="http://www.w3.org/1999/xlink">
<defs>
<symbol id="facebook" viewBox="0 0 32 32">
<path d="M28.090 0c2.158 0 3.91 1.752 3.91 3.91v24.181c0 2.158-1.752 3.91-3.91 3.91h-6.654v-12.057h4.162l0.792-5.164h-4.954v-3.351c0-1.413 0.692-2.79 2.911-2.79h2.253v-4.396c0 0-2.044-0.349-3.999-0.349-4.081 0-6.747 2.473-6.747 6.95v3.936h-4.536v5.164h4.536v12.057h-11.944c-2.158 0-3.91-1.752-3.91-3.91v-24.181c0-2.158 1.752-3.91 3.91-3.91h24.181z"></path>
</symbol>
<symbol id="linkedin" viewBox="0 0 32 32">
<path d="M28.090 0c2.158 0 3.91 1.752 3.91 3.91v24.181c0 2.158-1.752 3.91-3.91 3.91h-24.181c-2.158 0-3.91-1.752-3.91-3.91v-24.181c0-2.158 1.752-3.91 3.91-3.91h24.181zM10.029 26.455v-14.107h-4.69v14.107h4.69zM26.938 26.455v-8.090c0-4.333-2.314-6.349-5.399-6.349-2.488 0-3.602 1.368-4.226 2.329v-1.997h-4.689c0.062 1.324 0 14.107 0 14.107h4.689v-7.878c0-0.422 0.030-0.843 0.155-1.145 0.338-0.842 1.11-1.715 2.406-1.715 1.696 0 2.375 1.294 2.375 3.19v7.548h4.689zM7.715 5.545c-1.605 0-2.653 1.055-2.653 2.438 0 1.354 1.016 2.438 2.591 2.438h0.030c1.635 0 2.653-1.084 2.653-2.438-0.030-1.381-1.015-2.435-2.621-2.438z"></path>
</symbol>
</defs>
</svg>
